# xmcd
#
# Track frame offsets: 
#        150
#        17352
#        39555
#        56800
#        75650
#        95037
#        122995
#        138662
#        159517
#        180615
#
# Disc length: 2721 seconds
#
# Revision: 3
# Processed by: cddbd v1.5.2PL0 Copyright (c) Steve Scherf et al.
# Submitted via: ExactAudioCopy v1.1
#
DISCID=830a9f0a
DTITLE=John Phillips - Pay, Pack And Follow
DYEAR=1973
DGENRE=Rock
TTITLE0=Mr. Blue
TTITLE1=She's Just 14
TTITLE2=Wilderness Of Love
TTITLE3=Oh Virginia
TTITLE4=Sunset Boulevard
TTITLE5=Pussycat
TTITLE6=Zulu Warrior
TTITLE7=Very Dread
TTITLE8=2001
TTITLE9=I Wished
EXTD=
EXTT0=
EXTT1=
EXTT2=
EXTT3=
EXTT4=
EXTT5=
EXTT6=
EXTT7=
EXTT8=
EXTT9=
PLAYORDER=
